ply
format ascii 1.0
comment VCGLIB generated
element vertex 32
property float x
property float y
property float z
property uchar red
property uchar green
property uchar blue
property uchar alpha
element face 60
property list uchar int vertex_indices
end_header
0.378886 9.53674e-009 0.61305 25 76 204 255 
0.847214 0 0.323606 25 76 204 255 
0.523606 0.523606 0.523606 25 76 204 255 
0 0.323606 0.847214 25 76 204 255 
0 -0.323606 0.847214 25 76 204 255 
0.523606 -0.523606 0.523606 25 76 204 255 
-0.378886 0 0.61305 25 76 204 255 
-0.523606 0.523606 0.523606 25 76 204 255 
-0.847214 0 0.323606 25 76 204 255 
-0.523606 -0.523606 0.523606 25 76 204 255 
0 0.61305 0.378886 25 76 204 255 
0.323606 0.847214 0 25 76 204 255 
-0.323606 0.847214 0 25 76 204 255 
-9.53674e-009 -0.61305 0.378886 25 76 204 255 
-0.323606 -0.847214 0 25 76 204 255 
0.323606 -0.847214 0 25 76 204 255 
0.61305 0.378886 9.53674e-009 25 76 204 255 
0.847214 0 -0.323606 25 76 204 255 
0.523606 0.523606 -0.523606 25 76 204 255 
-0.61305 0.378886 0 25 76 204 255 
-0.523606 0.523606 -0.523606 25 76 204 255 
-0.847214 0 -0.323606 25 76 204 255 
-0.61305 -0.378886 9.53674e-009 25 76 204 255 
-0.523606 -0.523606 -0.523606 25 76 204 255 
0.61305 -0.378886 4.76838e-009 25 76 204 255 
0.523606 -0.523606 -0.523606 25 76 204 255 
0 0.61305 -0.378886 25 76 204 255 
0 0.323606 -0.847214 25 76 204 255 
0 -0.61305 -0.378886 25 76 204 255 
0 -0.323606 -0.847214 25 76 204 255 
0.378886 0 -0.61305 25 76 204 255 
-0.378886 0 -0.61305 25 76 204 255 
3 0 1 2 
3 0 2 3 
3 0 3 4 
3 0 4 5 
3 0 5 1 
3 6 7 8 
3 6 8 9 
3 6 9 4 
3 6 4 3 
3 6 3 7 
3 10 7 3 
3 10 3 2 
3 10 2 11 
3 10 11 12 
3 10 12 7 
3 13 9 14 
3 13 14 15 
3 13 15 5 
3 13 5 4 
3 13 4 9 
3 16 2 1 
3 16 1 17 
3 16 17 18 
3 16 18 11 
3 16 11 2 
3 19 7 12 
3 19 12 20 
3 19 20 21 
3 19 21 8 
3 19 8 7 
3 22 9 8 
3 22 8 21 
3 22 21 23 
3 22 23 14 
3 22 14 9 
3 24 1 5 
3 24 5 15 
3 24 15 25 
3 24 25 17 
3 24 17 1 
3 26 12 11 
3 26 11 18 
3 26 18 27 
3 26 27 20 
3 26 20 12 
3 28 23 29 
3 28 29 25 
3 28 25 15 
3 28 15 14 
3 28 14 23 
3 30 18 17 
3 30 17 25 
3 30 25 29 
3 30 29 27 
3 30 27 18 
3 31 23 21 
3 31 21 20 
3 31 20 27 
3 31 27 29 
3 31 29 23 
