ply
format ascii 1.0
comment VCGLIB generated
element vertex 12
property float x
property float y
property float z
element face 20
property list uchar int vertex_indices
end_header
0 1.61803 1 
0 1.61803 -1 
0 -1.61803 1 
0 -1.61803 -1 
1.61803 1 0 
1.61803 -1 0 
-1.61803 1 0 
-1.61803 -1 0 
1 0 1.61803 
-1 0 1.61803 
1 0 -1.61803 
-1 0 -1.61803 
3 1 0 4 
3 0 1 6 
3 2 3 5 
3 3 2 7 
3 4 5 10 
3 5 4 8 
3 6 7 9 
3 7 6 11 
3 8 9 2 
3 9 8 0 
3 10 11 1 
3 11 10 3 
3 0 8 4 
3 0 6 9 
3 1 4 10 
3 1 11 6 
3 2 5 8 
3 2 9 7 
3 3 10 5 
3 3 7 11 
