ply
format ascii 1.0
comment VCGLIB generated
element vertex 30
property float x
property float y
property float z
element face 36
property list uchar int vertex_indices
property list uchar float texcoord
end_header
-15.7014 32.0235 25.0495 
-14.7296 26.6991 30.3564 
-44.3829 33.8981 -2.77621 
-13.2209 13.4596 -6.26138 
-9.85425 12.4112 3.3051 
-17.8263 17.1267 11.541 
-14.4452 16.9977 -7.21907 
-13.8398 7.74858 11.2681 
-11.3018 7.43173 -4.89305 
-9.85071 20.7252 3.28549 
-14.649 12.9503 2.50277 
-16.0407 17.0412 2.12452 
-14.6443 12.9493 2.50369 
-16.0614 13.7177 10.8418 
-14.649 12.9503 2.50277 
-13.0588 32.0171 21.0859 
-8.89943 7.74858 12.1585 
-11.9662 32.0235 25.7227 
-5.63574 7.43173 -3.8719 
-4.37281 30.9201 -27.1094 
-6.66878 13.7177 12.5346 
-5.08108 12.9503 4.22715 
-5.25905 17.1267 13.8059 
-5.08584 12.9493 4.22635 
-3.6449 17.0412 4.35855 
-9.85072 20.7252 3.28549 
-3.35967 13.4596 -4.48414 
-5.08108 12.9503 4.22715 
-1.87803 16.9977 -4.95415 
24.625 33.8981 9.6607 
3 0 15 4 6 1 1 0 1 0 0 
3 0 4 7 6 1 1 0 0 1 0 
3 17 16 4 6 1 1 1 0 0 0 
3 17 4 15 6 1 1 0 0 0 1 
3 15 0 1 6 0 1 1 1 0.5 0.5 
3 8 4 19 6 0 0 0 0 0 0 
3 7 13 10 6 1 0 1 0 0.046626 0 
3 5 12 11 6 0.5 0 0.036132 0 0.010083 0 
3 12 13 9 6 0.034428 0 1 0 0.024572 0 
3 5 13 12 6 0.5 0 1 0 0.147989 0 
3 3 4 8 6 0.008191 0 0 0 0.024572 0 
3 9 13 4 6 1 0 0.024572 0 0 0 
3 8 14 3 6 0 0 0.012174 0 0 0 
3 12 3 6 6 0.036132 0 0 0 0 0 
3 11 12 6 6 0.010083 0 0.036132 0 0 0 
3 9 3 12 6 0.008191 0 0 0 0.008259 0 
3 6 2 11 6 0 0 0 0 0.010083 0 
3 11 2 5 6 0.010083 0 0 0 0.5 0 
3 3 9 4 6 0.008191 0 1 0 0 0 
3 13 7 4 6 0.024572 0 0.024572 0 0 0 
3 15 1 17 6 0 1 0.5 0.5 1 1 
3 18 19 4 6 0 0 0 0 0 0 
3 16 21 20 6 1 0 0.046626 0 1 0 
3 22 24 23 6 0.5 0 0.010083 0 0.036132 0 
3 23 25 20 6 0.034428 0 0.024572 0 1 0 
3 22 23 20 6 0.5 0 0.147989 0 1 0 
3 26 18 4 6 0.008191 0 0.024572 0 0 0 
3 25 4 20 6 1 0 0 0 0.024572 0 
3 18 26 27 6 0 0 0 0 0.012174 0 
3 23 28 26 6 0.036132 0 0 0 0 0 
3 24 28 23 6 0.010083 0 0 0 0.036132 0 
3 25 23 26 6 0.008191 0 0.008259 0 0 0 
3 28 24 29 6 0 0 0.010083 0 0 0 
3 24 22 29 6 0.010083 0 0.5 0 0 0 
3 26 4 25 6 0.008191 0 0 0 1 0 
3 20 4 16 6 0.024572 0 0 0 0.024572 0 
